<svg width="240" height="62" viewBox="0 0 240 62" fill="none" xmlns="http://www.w3.org/2000/svg">
<path fill-rule="evenodd" clip-rule="evenodd" d="M30.9719 10.3803C42.3944 10.338 51.6761 19.5634 51.7184 30.9718C51.7606 42.3944 42.5353 51.6761 31.1268 51.7183C19.7184 51.7606 10.4226 42.5352 10.3803 31.1268C10.3381 19.7042 19.5493 10.4225 30.9719 10.3803ZM30.9296 0.140843C13.8592 0.197181 0.070471 14.0845 0.140894 31.169C0.197232 48.2394 14.0846 62.0282 31.155 61.9718C48.2254 61.9155 62.0141 48.0282 61.9578 30.9577C61.8874 13.8732 48 0.0845048 30.9296 0.140843Z" fill="black"/>
<path fill-rule="evenodd" clip-rule="evenodd" d="M15.5634 14.0423C14.4367 12.9577 12.8451 13.338 11.5493 11.6901C17.4648 8.35211 23.3803 5.02817 29.3099 1.69014C29.2817 2.73239 29.7184 3.33803 29.2113 4.8169C28.7888 6.02817 29.0986 5.85915 29.7606 6.94366C31.5071 9.76056 33.2395 12.5775 34.986 15.3803C36.155 18.1831 36.0141 20.7746 33.831 23.0141C34.4085 24.1549 34.9719 25.2817 35.5493 26.4225C35.9015 27.7606 36.2536 29.0845 36.6057 30.4225C38.1127 30.4225 39.6198 30.4084 41.1268 30.4084C41.986 30.5493 42.8592 30.7042 43.7184 30.8451C43.7184 31.4084 43.7184 31.9859 43.7184 32.5493C43.3803 32.6479 43.0423 32.7324 42.6902 32.831C42.6902 33.507 42.6902 34.1831 42.7043 34.8592C43.0141 34.8592 43.3381 34.8592 43.6479 34.8592C43.6479 35.4789 43.6479 36.0986 43.6479 36.7183C42.9015 36.7183 42.1691 36.7183 41.4226 36.7324C40.9155 37.6197 38.662 37.2817 37.3662 37.4225C36.6198 36.7887 36.3381 36.7183 35.8592 36.1549C34.9719 36.1549 34.0846 36.1549 33.1831 36.169C33.3381 38.9296 33.493 41.7042 33.662 44.4648C34.0846 45 35.0282 44.8592 34.9296 46.0845C34.8592 46.8592 33.9578 47.2535 33.155 47.1268C30.3803 46.8873 30.3662 39.5211 28.9578 35.7324C27.9437 41.6479 26.9296 47.5493 25.9015 53.4648C26.5212 54.0563 27.1409 54.6479 27.7606 55.2394C28.8874 56.0986 27.9015 57.4366 26.7324 57.169C24.2395 56.5634 21.7324 55.9577 19.2395 55.338C17.9719 54.8592 18.2254 53.4648 18.5634 52.0845C19.5634 46.7183 20.5493 41.3521 21.5493 35.9859C21.0846 35.9859 20.6057 35.9859 20.1409 35.9859C19.9437 36.7183 19.9296 36.9296 19.4367 36.9296C18.6057 36.9437 17.7747 36.9437 16.9296 36.9577C16.5916 36.9577 16.2113 37.0563 16.2113 36.0704C15.8874 36.0704 15.831 36.0704 15.5212 36.0704C15.0141 37 14.4648 36.7183 13.7747 35.7746C13.6198 35.3521 13.5353 34.5352 13.5071 33.9155C13.4789 33.3521 13.493 32.5211 13.6057 32.2113C14.2958 31.5493 15.2395 31.493 15.7606 32.4225C15.8451 32.2535 15.9155 32.0845 16 31.9014C16.2677 31.3099 16.6057 31.4507 16.9015 31.4507C17.8029 31.4507 18.7043 31.4507 19.6057 31.4366C20.0564 31.4366 20.0986 31.7606 20.2113 32.5493C21.0564 32.5211 21.8874 32.493 22.7324 32.4648C22.7043 31.8732 22.6761 31.2817 22.6479 30.6901C21.8874 29.2958 21.7324 28.0423 22.5071 27.3803C23.1691 26.8169 23.8733 26.3239 24.5493 25.8028C23.1409 25.4789 21.7888 24.8732 20.6057 23.1408C18.9437 20.1127 17.2536 17.0845 15.5634 14.0423ZM28.9437 29.6338L29.986 29.7746L30.3381 28.5915L28.7465 26.3099L26.2817 26.1831L28.9437 29.6338Z" fill="#6D6E70"/>
<path fill-rule="evenodd" clip-rule="evenodd" d="M134.761 24.7465C137.268 24.7324 138.211 27.4366 138.225 30.0563C138.239 33.2394 137.282 35.6056 134.845 35.6056C132.141 35.6197 131.465 32.5352 131.451 30.0845C131.451 27.6479 132.197 24.7606 134.761 24.7465ZM134.789 20.0422C129.423 20.0563 125.789 24.0141 125.803 30.0563C125.831 36.6197 129.451 40.338 134.859 40.3239C139.958 40.3099 143.887 36.6056 143.859 30.0422C143.859 24.9577 140.944 20.0141 134.789 20.0422ZM151.085 25.7324L146.113 25.7465L146.169 39.7606L151.141 39.7465L151.127 35.8169L152.056 34.7746L154.761 39.7465L160.747 39.7183L155.479 31.1549L160.099 25.7042L154.282 25.7324L151.113 30.0282L151.085 25.7324ZM162.113 25.6901L162.183 44.4789L167.155 44.4648L167.127 38.3099C167.972 39.4789 168.972 40.0986 170.338 40.0845C173.141 40.0704 176.197 38.0563 176.169 32.5493C176.155 28.6901 174.324 25.2535 170.549 25.2676C169.113 25.2676 167.324 26.0563 166.634 27.7746H166.592V25.6901H162.113ZM169.07 35.831C167.775 35.831 167.028 34.493 167.028 32.5493C167.028 30.6761 167.831 29.338 169.028 29.338C170.352 29.338 171.211 30.4225 171.211 32.6479C171.211 34.5634 170.38 35.831 169.07 35.831ZM183.282 29.9296C183.394 28.7324 184.324 28.5634 185.028 28.5634C185.549 28.5634 186.662 28.6901 186.662 29.7042C186.676 32.3239 177.732 29.4648 177.761 35.831C177.775 38.7465 179.887 40.0563 182.254 40.0423C184.127 40.0423 185.549 39.6056 186.958 38.1268L187.197 39.6197L192.338 39.6056V39.338C191.69 38.7465 191.662 38.3521 191.662 37.5493L191.634 31C191.62 27.6479 191.254 25.1972 185.324 25.2113C180.366 25.2254 178.493 26.9718 178.493 29.9437L183.282 29.9296ZM186.662 33.4084C186.676 35.5493 186.211 36.8592 184.465 36.8732C183.479 36.8732 182.887 36.3944 182.887 35.7042C182.887 33.8873 185.042 34.3099 186.662 33.4084ZM207.817 30.8732C207.451 26.7324 204.282 25.1268 200.93 25.1408C196.789 25.1549 193.789 27.9155 193.803 32.7042C193.817 37.4366 196.944 39.9718 200.986 39.9577C204.451 39.9437 207.507 38.3521 207.93 34.0986L202.901 34.1127C202.761 35.2113 202.268 36.1972 200.972 36.2113C199.507 36.2113 198.789 34.831 198.789 32.7183C198.789 31.0563 199.085 28.8873 200.958 28.8873C202.056 28.8873 202.775 29.7887 202.789 30.8873L207.817 30.8732ZM214.916 25.507L209.944 25.5211L210 39.5352L214.972 39.5211L214.958 35.5915L215.887 34.5493L218.578 39.5211L224.563 39.493L219.296 30.9296L223.916 25.4789L218.099 25.507L214.93 29.8028L214.916 25.507ZM230.916 29.7465C231.028 28.5493 231.958 28.3803 232.662 28.3803C233.183 28.3803 234.296 28.507 234.296 29.5211C234.31 32.1408 225.366 29.2817 225.394 35.6479C225.409 38.5634 227.521 39.8732 229.887 39.8592C231.747 39.8592 233.183 39.4225 234.592 37.9437L234.831 39.4366L239.972 39.4225V39.1549C239.324 38.5634 239.296 38.169 239.296 37.3662L239.268 30.8169C239.254 27.4648 238.887 25.0141 232.958 25.0282C228 25.0423 226.127 26.7887 226.127 29.7606L230.916 29.7465ZM234.31 33.2394C234.31 35.3803 233.873 36.6901 232.127 36.7042C231.141 36.7042 230.549 36.2253 230.535 35.5352C230.521 33.7183 232.69 34.1268 234.31 33.2394Z" fill="#6D6E70"/>
<path fill-rule="evenodd" clip-rule="evenodd" d="M82.8451 13.7324C82.8451 17.0563 85.3099 17.4648 86.2536 17.4648C87.1972 17.4648 89.6479 17.0563 89.6479 13.7324C89.6479 10.4084 87.1831 10 86.2395 10C85.3099 10 82.8451 10.4225 82.8451 13.7324ZM84.324 13.7324C84.324 11.7465 85.4367 11.2535 86.2395 11.2535C87.0423 11.2535 88.1691 11.7465 88.1691 13.7324C88.1691 15.7183 87.0423 16.2113 86.2536 16.2113C85.4508 16.2254 84.324 15.7183 84.324 13.7324ZM92.0564 12.0141H90.6761L90.6902 17.2676H92.0705V15.6056L92.6479 15.0141L93.9015 17.2676H95.5493L93.6479 14.0423L95.493 12.0141H93.8029L92.0705 14.0141L92.0564 12.0141ZM98.6761 13.0563C99.6198 13.0563 99.8592 13.9014 99.8592 14.7465C99.8592 15.5211 99.5212 16.2676 98.6339 16.2676C97.7465 16.2676 97.493 15.2958 97.493 14.6761C97.493 13.8451 97.8029 13.0704 98.6761 13.0563ZM97.493 12.0141H96.1691L96.1832 19.3803H97.5634V16.5915L97.5916 16.6056C97.7606 16.8873 98.0986 17.4225 99.0705 17.4084C100.634 17.4084 101.296 16.0423 101.296 14.6056C101.296 12.7887 100.254 11.8732 99.0846 11.8873C98.155 11.8873 97.7747 12.3803 97.5212 12.7887H97.5071L97.493 12.0141ZM103.465 13.7042C103.507 13.3944 103.62 12.9718 104.31 12.9718C104.662 12.9718 105.225 13 105.225 13.5915C105.225 13.8451 105.014 14 104.423 14.0563C103.099 14.169 101.972 14.662 101.972 15.8732C101.972 16.9577 102.775 17.4084 103.563 17.4084C104.507 17.4084 104.958 16.9718 105.268 16.6479C105.296 16.9437 105.31 17.0141 105.394 17.2676H106.873V17.0563C106.704 17 106.563 16.8592 106.563 16.2394V13.3944C106.563 12.0986 105.211 11.8732 104.465 11.8732C103.394 11.8732 102.282 12.0986 102.127 13.7183L103.465 13.7042ZM105.225 14.6901V15.3662C105.225 16 104.606 16.4084 104 16.4084C103.732 16.4084 103.352 16.2676 103.352 15.7746C103.352 15.2113 103.775 15.0704 104.296 14.9859C104.845 14.8873 105.085 14.8028 105.225 14.6901ZM110.944 15.338C110.944 15.5775 110.704 16.2535 110 16.2535C108.958 16.2535 108.93 15.1127 108.93 14.5493C108.93 13.9014 109.155 13.0282 110.028 13.0282C110.676 13.0282 110.887 13.5352 110.944 13.8732H112.338C112.211 12.2394 110.845 11.8592 110.014 11.8592C108.239 11.8592 107.507 13.0704 107.507 14.7746C107.507 15.8732 107.958 17.3944 109.93 17.3944C111.859 17.3944 112.268 15.8732 112.324 15.338H110.944ZM115.704 11.8451C114.296 11.8451 113.014 12.7183 113.014 14.6197C113.014 16.5211 114.296 17.3803 115.704 17.3803C117.113 17.3803 118.38 16.493 118.38 14.6056C118.38 12.7042 117.113 11.8451 115.704 11.8451ZM115.704 13.0141C116.775 13.0141 116.972 13.9437 116.972 14.6197C116.972 15.2958 116.775 16.2254 115.718 16.2254C114.648 16.2254 114.451 15.2958 114.451 14.6197C114.437 13.9296 114.648 13.0141 115.704 13.0141ZM119.31 11.9859V13.5634C119.31 14.9014 120.056 15.3944 121.085 15.3944C121.62 15.3944 122.085 15.338 122.563 15.2254V17.2394H123.944V11.9859H122.563V14.1549C122.38 14.2113 122 14.2394 121.578 14.2394C121.155 14.2394 120.676 14.1408 120.676 13.5211V11.9859H119.31ZM126.507 11.9718H125.127L125.141 17.2253H126.521V15.0422H128.479V17.2253H129.859V11.9718H128.479V13.9296H126.507V11.9718ZM133.465 11.831C132.056 11.831 130.775 12.7042 130.775 14.6056C130.775 16.507 132.056 17.3662 133.465 17.3662C134.873 17.3662 136.141 16.4789 136.141 14.5915C136.155 12.6761 134.873 11.8169 133.465 11.831ZM133.465 12.9859C134.535 12.9859 134.732 13.9155 134.732 14.5915C134.732 15.2676 134.535 16.1972 133.479 16.1972C132.409 16.1972 132.211 15.2535 132.211 14.5915C132.197 13.9155 132.408 12.9859 133.465 12.9859ZM140.352 15.662C140.239 16.0282 139.859 16.2394 139.465 16.2394C138.352 16.2394 138.254 15.3521 138.254 14.9577H141.817V14.4366C141.817 12.6338 140.817 11.8169 139.352 11.8169C137.056 11.8169 136.831 13.8451 136.831 14.4789C136.831 16.6338 137.972 17.3521 139.451 17.3521C140.352 17.3521 141.394 16.9296 141.761 15.662H140.352ZM138.254 14.0563C138.338 13.3662 138.676 12.9437 139.338 12.9437C139.775 12.9437 140.324 13.2113 140.409 14.0423L138.254 14.0563ZM147.944 11.8028C146.535 11.8028 145.254 12.6761 145.254 14.5775C145.254 16.4789 146.535 17.338 147.944 17.338C149.352 17.338 150.62 16.4507 150.62 14.5634C150.62 12.662 149.352 11.8028 147.944 11.8028ZM147.944 12.9718C149.014 12.9718 149.211 13.9014 149.211 14.5775C149.211 15.2535 149.014 16.1831 147.958 16.1831C146.887 16.1831 146.69 15.2535 146.69 14.5775C146.676 13.8873 146.873 12.9718 147.944 12.9718ZM152.366 13.2394C152.465 11.9437 153.282 11.5211 154.409 11.338C155.451 11.169 156.042 10.7746 156.197 9.88732H155.155C155.07 10.2254 154.535 10.2535 153.634 10.4648C151.761 10.9155 151.324 12.3662 151.324 14.3944C151.324 16.3239 152.338 17.3239 153.916 17.3239C155.437 17.3239 156.521 16.3803 156.507 14.5493C156.507 12.7746 155.338 12.1127 154.042 12.1127C153.282 12.1268 152.676 12.6197 152.366 13.2394ZM153.944 13.2394C154.817 13.2394 155.07 14.0141 155.085 14.6901C155.085 15.3662 154.817 16.169 153.901 16.1831C152.972 16.1831 152.732 15.3803 152.732 14.7042C152.718 13.9859 153.028 13.2394 153.944 13.2394ZM159.859 11.7887C158.451 11.7887 157.169 12.662 157.169 14.5634C157.169 16.4648 158.451 17.3239 159.859 17.3239C161.268 17.3239 162.535 16.4366 162.535 14.5493C162.549 12.6479 161.268 11.7887 159.859 11.7887ZM159.873 12.9577C160.944 12.9577 161.127 13.8873 161.141 14.5634C161.141 15.2394 160.944 16.169 159.887 16.169C158.817 16.169 158.62 15.2394 158.62 14.5634C158.592 13.8732 158.803 12.9577 159.873 12.9577ZM165.986 12.9718C166.93 12.9718 167.169 13.8169 167.169 14.662C167.169 15.4366 166.831 16.1831 165.944 16.1831C165.056 16.1831 164.803 15.2113 164.803 14.5915C164.803 13.7606 165.099 12.9718 165.986 12.9718ZM164.803 11.9155H163.479L163.493 19.2817H164.873V16.493L164.901 16.507C165.07 16.7887 165.409 17.3239 166.38 17.3099C167.944 17.3099 168.606 15.9437 168.606 14.507C168.606 12.6901 167.563 11.7887 166.409 11.7887C165.479 11.7887 165.099 12.2817 164.845 12.6901H164.831L164.803 11.9155ZM169.028 11.9155L170.972 17.3803C170.845 18.0986 170.578 18.169 170.07 18.169C169.958 18.169 169.859 18.1549 169.803 18.1549V19.2535C170 19.2676 170.24 19.2676 170.423 19.2676C171.62 19.2676 171.859 18.7746 172.451 17.0563L174.254 11.8873H172.789L171.718 15.7606H171.704L170.578 11.8873L169.028 11.9155ZM175.718 11.9014V13.3239C175.718 14.5915 175.521 15.6056 175.169 16.0563H174.592V18.5775H175.873V17.1549H179.141V18.5775H180.423V16.0563H179.789V11.9014H175.718ZM178.409 16.0563H176.535C176.803 15.662 177 15.0563 177 13.6479V13H178.394L178.409 16.0563ZM183.676 11.7606C182.268 11.7606 180.986 12.6338 180.986 14.5352C180.986 16.4366 182.268 17.2958 183.676 17.2958C185.085 17.2958 186.352 16.4084 186.352 14.5211C186.352 12.6197 185.085 11.7606 183.676 11.7606ZM183.676 12.9155C184.747 12.9155 184.944 13.8451 184.944 14.5211C184.944 15.1972 184.747 16.1268 183.69 16.1268C182.62 16.1268 182.423 15.1972 182.423 14.5211C182.409 13.8451 182.62 12.9296 183.676 12.9155ZM187.296 17.1549H189.944C191.141 17.1549 191.873 16.6901 191.873 15.7183C191.873 14.8592 191.282 14.5211 190.732 14.3944C191.282 14.2535 191.718 13.8592 191.704 13.2535C191.704 12.3803 190.845 11.9014 189.662 11.9014H187.282L187.296 17.1549ZM188.662 14.8451H189.662C190.169 14.8451 190.507 15.0563 190.507 15.5211C190.507 16.0423 190.197 16.1972 189.69 16.1972H188.676L188.662 14.8451ZM188.662 12.8451H189.578C190.042 12.8451 190.352 13 190.352 13.4366C190.352 13.8451 190.028 14.0282 189.578 14.0282H188.676L188.662 12.8451ZM194.028 13.5775C194.07 13.2676 194.183 12.8451 194.873 12.8451C195.225 12.8451 195.789 12.8732 195.789 13.4648C195.789 13.7183 195.578 13.8732 194.986 13.9296C193.662 14.0423 192.535 14.5352 192.535 15.7465C192.535 16.831 193.338 17.2817 194.127 17.2817C195.07 17.2817 195.521 16.8451 195.831 16.5211C195.859 16.8169 195.873 16.8873 195.958 17.1408H197.451V16.9296C197.282 16.8732 197.141 16.7324 197.141 16.1127V13.2676C197.141 11.9718 195.789 11.7465 195.042 11.7465C193.972 11.7465 192.859 11.9718 192.704 13.5915L194.028 13.5775ZM195.789 14.5775V15.2535C195.789 15.8873 195.169 16.2958 194.563 16.2958C194.296 16.2958 193.916 16.1549 193.916 15.662C193.916 15.0986 194.338 14.9577 194.859 14.8732C195.423 14.7746 195.662 14.6901 195.789 14.5775ZM199.704 11.8732H198.324V17.1268H199.704V14.9437H201.662V17.1268H203.042V11.8732H201.662V13.831H199.704V11.8732ZM205.592 11.8732H204.211L204.225 17.1268H205.704L207.69 13.7746V17.1127H209.07L209.056 11.8592H207.578L205.592 15.1972V11.8732ZM213.507 15.5775C213.394 15.9437 213.014 16.1549 212.62 16.1549C211.507 16.1549 211.423 15.2676 211.423 14.8732H214.986V14.3521C214.986 12.5493 214 11.7324 212.521 11.7324C210.225 11.7324 210 13.7606 210 14.3944C210 16.5493 211.141 17.2676 212.62 17.2676C213.521 17.2676 214.563 16.8451 214.93 15.5775H213.507ZM211.409 13.9577C211.479 13.2676 211.831 12.8451 212.493 12.8451C212.93 12.8451 213.479 13.1127 213.563 13.9437L211.409 13.9577Z" fill="#6D6E70"/>
<path fill-rule="evenodd" clip-rule="evenodd" d="M74.817 27.9859C74.3381 23.0423 71.3381 20.1268 66 20.1408C61.1127 20.1549 57.2958 24.0422 57.3099 30.2817C57.324 36.5352 60.831 40.4366 66.6198 40.4225C71.2395 40.4085 74.4508 37.4085 74.9437 32.4225L69.4367 32.4366C69.2254 34.2817 68.3522 35.7042 66.5071 35.7042C63.5916 35.7183 63.0564 33.169 63.0423 30.4648C63.0282 26.7465 64.2395 24.8451 66.2536 24.831C68.0564 24.831 69.1972 25.9718 69.3662 27.9859H74.817ZM76.986 25.8732L77.0282 39.8873L82.0846 39.8732L82.0564 29.9155L85.8029 29.9014L85.831 39.8592L90.8874 39.8451L90.8451 25.831L76.986 25.8732ZM98.0846 31.2394C98.0846 29.7465 98.9296 28.8028 100.437 28.8028C101.62 28.8028 102.676 29.9437 102.676 31.2254L98.0846 31.2394ZM107.732 34.0423C107.718 28.7746 104.944 25.3803 100.225 25.3944C96.1409 25.4084 93.0141 28.3521 93.0282 32.9577C93.0423 37.662 96.2113 40.2253 100.282 40.2113C103.239 40.1972 106.451 39.0423 107.31 35.5634L102.479 35.5775C102.113 36.4084 101.394 36.8169 100.592 36.8169C99.2536 36.8169 98.0846 35.7324 98.0846 34.0704L107.732 34.0423ZM114.859 25.7465L109.803 25.7606L109.845 39.7746L120.479 39.7465L120.493 43.0845L125.113 43.0704L125.085 35.662H123.676L123.648 25.7042L118.592 25.7183L118.62 35.6761L114.873 35.6901L114.859 25.7465Z" fill="#E6A52F"/>
<path fill-rule="evenodd" clip-rule="evenodd" d="M19.4226 52.5352C20.3803 46.9859 21.324 41.4366 22.2817 35.9014C24.2254 35.8873 26.1691 35.8873 28.1127 35.8873C27.0986 41.4507 26.0846 47.0141 25.0705 52.5775C24.8169 53.8592 25.2536 55.1127 27.0423 56.2958C24.7324 55.7183 22.4226 55.1408 20.1127 54.5493C19.5071 54.1408 19.2817 53.4648 19.4226 52.5352Z" fill="#E6A52F"/>
<path fill-rule="evenodd" clip-rule="evenodd" d="M28.6057 7.11267C30.4508 10.1408 32.2958 13.169 34.1409 16.1972C34.7888 18.3803 34.4648 20.4084 33.2677 22.2676C31.6339 23.2394 29.986 24.2253 28.3522 25.1972C25.7747 25.4084 23.5212 24.7042 21.6902 22.7183C19.9437 19.8028 18.1972 16.8732 16.4508 13.9577C16.0564 13.5493 15.662 13.2676 15.2817 13.0704L28.2536 5.60563C28.2254 6.12676 28.2958 6.61972 28.6057 7.11267ZM14.5634 12.7606L28.3099 5.01408C28.3522 4.74648 28.4085 4.46479 28.4648 4.1831L13.9719 12.507C14.1691 12.5915 14.3662 12.6761 14.5634 12.7606ZM13.3522 12.1408L28.5634 3.57746C28.5916 3.36619 28.6057 3.14084 28.6057 2.92958C23.3944 5.87324 18.1831 8.8169 12.9719 11.7606C13.0705 11.9155 13.2113 12.0423 13.3522 12.1408Z" fill="#E6A52F"/>
<path fill-rule="evenodd" clip-rule="evenodd" d="M31.6479 29.2113L29.3803 25.5211L32.6479 23.507L34.8733 27.0704L31.6479 29.2113Z" fill="#E6A52F"/>
<path fill-rule="evenodd" clip-rule="evenodd" d="M33.2677 30.9014L32.1691 29.6056L34.9719 27.8873L35.7184 29.4225L33.2677 30.9014Z" fill="#E6A52F"/>
<path fill-rule="evenodd" clip-rule="evenodd" d="M33.8451 30.9718C34.3522 30.7324 34.8733 30.493 35.3803 30.2394C35.5493 30.6479 35.7043 31.0704 35.8592 31.493C35.7606 31.7606 35.6479 32.0282 35.5493 32.2817C35.7888 32.2958 36.0282 32.3099 36.2677 32.3239C36.2395 33.3239 36.2254 34.3239 36.2113 35.3239C35.0141 35.3239 33.8169 35.3099 32.6057 35.3099C33.2113 34.6197 33.7465 33.8732 33.9578 32.8592C34.2254 32.5915 34.5071 32.3099 34.7747 32.0423C34.4789 31.6901 34.1691 31.3239 33.8451 30.9718Z" fill="#E6A52F"/>
<path d="M37.8505 31.1961L36.9914 31.199L37.0091 36.5089L37.8683 36.506L37.8505 31.1961Z" fill="#E6A52F"/>
<path d="M39.3717 31.1961L38.5125 31.199L38.5303 36.5088L39.3894 36.5059L39.3717 31.1961Z" fill="#E6A52F"/>
<path fill-rule="evenodd" clip-rule="evenodd" d="M40.0423 36.493H40.9015L40.8874 31.1831H40.0141L40.0423 36.493Z" fill="#E6A52F"/>
<path d="M41.9668 32.6607L41.1077 32.6643L41.1184 35.2558L41.9776 35.2523L41.9668 32.6607Z" fill="#E6A52F"/>
<path d="M42.999 31.6737L41.5342 31.6792L41.5369 32.3975L43.0017 32.392L42.999 31.6737Z" fill="#E6A52F"/>
<path fill-rule="evenodd" clip-rule="evenodd" d="M23.3803 32.4225L28.6198 32.4085V31.3521L23.3803 31.3662V32.4225Z" fill="#E6A52F"/>
<path d="M27.0946 32.8599L19.6298 32.8874L1 9.6382 35.1691L27.103 35.1416L27.0946 32.8599Z" fill="#E6A52F"/>
<path fill-rule="evenodd" clip-rule="evenodd" d="M18 35.8732H19.2536L19.2395 32.1972H17.986L18 35.8732Z" fill="#E6A52F"/>
<path d="M17.261 32.2101L16.3737 32.2134L16.3873 35.8894L17.2746 35.8861L17.261 32.2101Z" fill="#E6A52F"/>
<path d="M14.993 32.4776L14.1056 32.4813L14.12 35.932L15.0074 35.9283L14.993 32.4776Z" fill="#E6A52F"/>
<path d="M17.6591 33.112L17.0393 33.114L17.0454 34.9591L17.6651 34.9571L17.6591 33.112Z" fill="#E6A52F"/>
<path d="M28.6173 33.3228L27.5891 33.3257L27.5943 35.1707L28.6224 35.1678L28.6173 33.3228Z" fill="#E6A52F"/>
<path d="M17.6609 33.7131L14.6609 33.7244L14.6633 34.3723L17.6633 34.361L17.6609 33.7131Z" fill="#E6A52F"/>
<path d="M43.0132 35.4204L41.5484 35.4254L41.5508 36.1437L43.0156 36.1387L43.0132 35.4204Z" fill="#E6A52F"/>
<path fill-rule="evenodd" clip-rule="evenodd" d="M24.3662 30.9718C24.2254 31.0141 24.0846 31.0563 23.9296 31.0986C23.3944 30.5352 22.9296 29.8169 22.7747 28.6056C22.8029 27.4648 23.5353 26.8592 24.9015 26.7324C25.9719 26.5915 27.493 29.2817 28.7747 30.5634C28.324 30.5916 27.8733 30.6338 27.4367 30.662C26.6339 29.6479 25.9719 28.3662 25.0282 27.6197C24.1409 27.2817 23.6057 27.6197 23.4226 28.6761C23.3522 29.5211 23.8029 30.2676 24.3662 30.9718Z" fill="#E6A52F"/>
<path fill-rule="evenodd" clip-rule="evenodd" d="M23.9015 29.0423C24.2395 29.6479 24.5775 30.2394 24.9155 30.8451C25.662 30.8028 26.4085 30.7746 27.1409 30.7465C26.5353 29.9437 25.9296 29.1408 25.3381 28.3239C24.5212 27.7887 23.9578 27.831 23.9015 29.0423Z" fill="#E6A52F"/>
<path fill-rule="evenodd" clip-rule="evenodd" d="M31.2817 30.2535C32.5071 30.2535 33.493 31.1972 33.493 32.3521C33.493 33.5211 32.5071 34.4648 31.2958 34.4789C30.0705 34.4789 29.0846 33.5352 29.0846 32.3803C29.0705 31.2113 30.0564 30.2676 31.2817 30.2535Z" fill="#E6A52F"/>
<path fill-rule="evenodd" clip-rule="evenodd" d="M31.7888 44.1408C31.0423 41.3662 30.4226 38.3239 30.0705 34.7606C30.7888 34.8451 31.5071 34.9155 32.2254 35C32.324 41.6901 32.8592 45.5352 33.8592 46.3521C32.9155 46.2817 32.1268 45.7887 31.7888 44.1408Z" fill="#E6A52F"/>
</svg>
