<svg width="24" height="24" viewBox="0 0 24 24" fill="none" xmlns="http://www.w3.org/2000/svg">
<path d="M4 4H5.75597C6.19758 4 6.5869 4.28967 6.7138 4.71265L7.59091 7.63636M7.59091 7.63636L9.2862 13.2873C9.4131 13.7103 9.80242 14 10.244 14H18.1449C18.6372 14 19.0563 13.6416 19.1327 13.1552L19.8185 8.7916C19.9138 8.18486 19.4448 7.63636 18.8306 7.63636H7.59091ZM11 18.5C11 19.3284 10.3284 20 9.5 20C8.67157 20 8 19.3284 8 18.5C8 17.6716 8.67157 17 9.5 17C10.3284 17 11 17.6716 11 18.5ZM19 18.5C19 19.3284 18.3284 20 17.5 20C16.6716 20 16 19.3284 16 18.5C16 17.6716 16.6716 17 17.5 17C18.3284 17 19 17.6716 19 18.5Z" stroke="white" stroke-width="2" stroke-linecap="round"/>
</svg>
