<svg width="32" height="32" viewBox="0 0 32 32" fill="none" xmlns="http://www.w3.org/2000/svg">
<path d="M4 18V23H8M3 7H18V8M18 8V15M18 8H25L29 15M18 15V23.0144M18 15H29M29 15V23H26M4.10526 12H9.36842M13 23H21M26 23.5C26 24.8807 24.8807 26 23.5 26C22.1193 26 21 24.8807 21 23.5C21 22.1193 22.1193 21 23.5 21C24.8807 21 26 22.1193 26 23.5ZM13 23.5C13 24.8807 11.8807 26 10.5 26C9.11929 26 8 24.8807 8 23.5C8 22.1193 9.11929 21 10.5 21C11.8807 21 13 22.1193 13 23.5Z" stroke="black" stroke-width="2" stroke-linecap="round" stroke-linejoin="round"/>
</svg>
