<svg width="15" height="16" viewBox="0 0 15 16" fill="none" xmlns="http://www.w3.org/2000/svg">
<path fill-rule="evenodd" clip-rule="evenodd" d="M13.1323 6.72728C13.1323 11.1818 7.13229 15 7.13229 15C7.13229 15 1.13232 11.1818 1.13232 6.72728C1.13232 5.20831 1.76446 3.75155 2.88967 2.67748C4.01489 1.60341 5.541 1 7.13229 1C8.72358 1 10.2498 1.60341 11.3749 2.67748C12.5001 3.75155 13.1323 5.20831 13.1323 6.72728ZM7.13232 9C8.23689 9 9.13232 8.10457 9.13232 7C9.13232 5.89543 8.23689 5 7.13232 5C6.02775 5 5.13232 5.89543 5.13232 7C5.13232 8.10457 6.02775 9 7.13232 9Z" stroke="#FAA61A" stroke-width="2"/>
</svg>
