<svg width="22" height="23" viewBox="0 0 22 23" fill="none" xmlns="http://www.w3.org/2000/svg">
<path d="M11 0.5C8.08328 0.5 5.28344 1.65964 3.22266 3.7218C1.15975 5.78477 0.000571433 8.58256 0 11.5C0 14.4162 1.16016 17.216 3.22266 19.2782C5.28344 21.3404 8.08328 22.5 11 22.5C13.9167 22.5 16.7166 21.3404 18.7773 19.2782C20.8398 17.216 22 14.4162 22 11.5C22 8.5838 20.8398 5.78395 18.7773 3.7218C16.7166 1.65964 13.9167 0.5 11 0.5Z" fill="url(#paint0_linear_2763_1018)"/>
<path d="M4.97921 11.384C8.1864 9.98703 10.3245 9.06596 11.3936 8.62097C14.4495 7.3503 15.0837 7.12961 15.498 7.12214C15.5891 7.12067 15.7919 7.14319 15.9242 7.25018C16.0342 7.34042 16.0651 7.46245 16.0806 7.54813C16.0944 7.63372 16.1133 7.8288 16.0978 7.98108C15.9328 9.72046 15.2161 13.9414 14.8517 15.8896C14.6987 16.7139 14.3945 16.9903 14.1006 17.0172C13.4612 17.076 12.9766 16.5951 12.3578 16.1897C11.3901 15.5549 10.8436 15.16 9.90343 14.5407C8.81718 13.825 9.52187 13.4316 10.1406 12.7888C10.3022 12.6205 13.1175 10.0604 13.1708 9.82822C13.1776 9.79917 13.1845 9.69089 13.1192 9.63383C13.0556 9.5766 12.9611 9.59619 12.8923 9.61166C12.7944 9.63366 11.2492 10.656 8.25171 12.6784C7.81343 12.9799 7.4164 13.1268 7.0589 13.1191C6.66702 13.1107 5.91077 12.897 5.34874 12.7145C4.66124 12.4906 4.11296 12.3721 4.16109 11.9918C4.18515 11.7938 4.45843 11.5911 4.97921 11.384Z" fill="white"/>
<defs>
<linearGradient id="paint0_linear_2763_1018" x1="11" y1="0.5" x2="11" y2="22.5" gradientUnits="userSpaceOnUse">
<stop stop-color="#2AABEE"/>
<stop offset="1" stop-color="#229ED9"/>
</linearGradient>
</defs>
</svg>
