<svg width="16" height="16" viewBox="0 0 16 16" fill="none" xmlns="http://www.w3.org/2000/svg">
<path d="M5.75318 2.74665C5.64979 2.68573 5.53198 2.65357 5.41197 2.65351L3.2857 3C2.41643 3 1.7887 3.80736 2.06657 4.63086C2.63745 6.32228 3.72403 8.94788 5.38821 10.612C7.0524 12.2759 9.67802 13.3628 11.3695 13.9333C12.1926 14.2115 13 13.5835 13 12.7145L13.2018 10.6018C13.2019 10.4819 13.1699 10.3642 13.1091 10.2608C13.0484 10.1574 12.9611 10.0721 12.8564 10.0138L11.3695 9.18725C11.2738 9.13408 11.1667 9.10504 11.0573 9.10264C10.9479 9.10023 10.8396 9.12454 10.7417 9.17345L9.63885 9.68749C9.63885 9.68749 8.46144 9.46143 7.5 8.5C6.53822 7.53857 6.30846 6.35714 6.30846 6.35714L6.83663 5.1099C6.8856 5.01206 6.90997 4.90375 6.90762 4.79437C6.90528 4.68499 6.87629 4.57782 6.82318 4.48217L6 3C5.9418 2.89505 5.85658 2.80758 5.75318 2.74665Z" stroke="#FAA61A" stroke-width="2" stroke-linejoin="round"/>
<path d="M10 6L14 2M10 6H14M10 6V2" stroke="#FAA61A" stroke-width="2" stroke-linecap="round" stroke-linejoin="round"/>
</svg>
