<svg width="24" height="24" viewBox="0 0 24 24" fill="none" xmlns="http://www.w3.org/2000/svg">
<g clip-path="url(#clip0_407_785)">
<circle cx="12" cy="12" r="12" fill="#09DA47"/>
<path d="M17.601 6.32599C16.8675 5.58566 15.9939 4.99873 15.0313 4.59939C14.0687 4.20005 13.0362 3.99629 11.994 3.99999C7.627 3.99999 4.068 7.55799 4.064 11.926C4.064 13.325 4.43 14.686 5.121 15.891L4 20L8.204 18.898C9.367 19.5309 10.6699 19.8626 11.994 19.863H11.998C16.366 19.863 19.924 16.305 19.928 11.933C19.929 10.891 19.7238 9.85918 19.3243 8.89687C18.9247 7.93456 18.3387 7.06082 17.6 6.32599H17.601ZM11.994 18.521C10.813 18.5214 9.6537 18.2036 8.638 17.601L8.398 17.457L5.904 18.111L6.57 15.678L6.414 15.427C5.75381 14.3773 5.40465 13.162 5.407 11.922C5.407 8.29599 8.364 5.33799 11.998 5.33799C12.8637 5.33644 13.7212 5.50626 14.521 5.83768C15.3208 6.1691 16.0471 6.65555 16.658 7.26899C17.271 7.88004 17.757 8.60641 18.0879 9.40622C18.4188 10.206 18.5881 11.0634 18.586 11.929C18.582 15.568 15.625 18.521 11.994 18.521ZM15.609 13.587C15.412 13.488 14.439 13.009 14.256 12.941C14.074 12.876 13.941 12.842 13.811 13.04C13.678 13.237 13.298 13.686 13.184 13.815C13.07 13.948 12.952 13.963 12.754 13.865C12.557 13.765 11.918 13.557 11.162 12.88C10.572 12.355 10.177 11.705 10.059 11.508C9.945 11.31 10.048 11.204 10.147 11.105C10.234 11.017 10.344 10.873 10.443 10.759C10.543 10.645 10.576 10.561 10.641 10.429C10.706 10.295 10.675 10.181 10.626 10.082C10.576 9.98299 10.181 9.00599 10.014 8.61199C9.854 8.22299 9.691 8.27699 9.569 8.27199C9.455 8.26499 9.322 8.26499 9.189 8.26499C9.08856 8.26748 8.98973 8.29071 8.89869 8.33322C8.80766 8.37572 8.7264 8.43659 8.66 8.51199C8.478 8.70999 7.969 9.18899 7.969 10.166C7.969 11.143 8.679 12.082 8.779 12.215C8.877 12.348 10.173 14.347 12.162 15.207C12.632 15.412 13.002 15.533 13.291 15.625C13.766 15.777 14.195 15.754 14.537 15.705C14.917 15.647 15.708 15.225 15.875 14.762C16.039 14.298 16.039 13.902 15.989 13.819C15.94 13.735 15.807 13.686 15.609 13.587Z" fill="white"/>
</g>
<defs>
<clipPath id="clip0_407_785">
<rect width="24" height="24" fill="white"/>
</clipPath>
</defs>
</svg>
